<svg enable-background="new 0 0 64 64" height="64" viewBox="0 0 64 64" width="64" xmlns="http://www.w3.org/2000/svg"><path d="m50.4 3.8c-5.1-5.1-13.3-5.1-18.3 0-2.3 2.3-3.7 5.4-3.8 8.7v12.3c0 .6.5 1.2 1.2 1.2h11.2c3.6.2 7.2-1.2 9.7-3.8 5.1-5.1 5.1-13.3 0-18.4z" fill="#34362f"/><path d="m3.8 13.7c-5.1 5.1-5.1 13.3 0 18.3 2.3 2.3 5.4 3.7 8.7 3.8h12.3c.6 0 1.1-.5 1.1-1.1v-11.3c.2-3.6-1.2-7.2-3.8-9.7-5.1-5-13.2-5-18.3 0zm9.9 46.5c5.1 5 13.3 5 18.3-.1 2.3-2.3 3.6-5.4 3.7-8.6v-12.2c0-.6-.5-1.1-1.1-1.1h-11.2c-3.6-.2-7.2 1.2-9.7 3.8-5 5-5 13.1 0 18.2zm46.5-9.9c5.1-5 5.1-13.2 0-18.3-2.3-2.3-5.4-3.7-8.7-3.8h-12.2c-.6 0-1.2.5-1.2 1.1v11.2c-.2 3.6 1.2 7.2 3.8 9.7 5.1 5.2 13.2 5.2 18.3.1z" fill="#f03748"/></svg>