<svg height="64" viewBox="0 0 64 64.000002" width="64" xmlns="http://www.w3.org/2000/svg" xmlns:xlink="http://www.w3.org/1999/xlink"><linearGradient id="a" gradientTransform="matrix(.11761907 -.11761907 .11761907 .11761907 77.247204 143.60894)" gradientUnits="userSpaceOnUse" x1="311.63461" x2="311.63461" y1="-756.73187" y2="-595.99091"><stop offset="0" stop-color="#e1959e"/><stop offset="1" stop-color="#c40452"/></linearGradient><linearGradient id="b" gradientUnits="userSpaceOnUse" x1="24.97508378943" x2="46.71792793449" y1="20.94645885383" y2="42.68930316522"><stop offset="0" stop-color="#cc4164"/><stop offset="1" stop-color="#86003c"/></linearGradient><linearGradient id="c"><stop offset="0" stop-color="#abbac3"/><stop offset="1" stop-color="#152128"/></linearGradient><linearGradient id="d" gradientUnits="userSpaceOnUse" x1="29.6132107761" x2="32.897545421" xlink:href="#c" y1="22.67420049579" y2="25.95853563971"/><linearGradient id="e" gradientUnits="userSpaceOnUse" x1="24.84475617041" x2="46.35442495766" xlink:href="#c" y1="20.58298897868" y2="42.09265793227"/><linearGradient id="f" gradientUnits="userSpaceOnUse" x1="50.57684978701" x2="23.27710072046" xlink:href="#c" y1="29.99940143611" y2="29.99940143611"/><radialGradient id="g" cx="-330.86179" cy="-22.1376" gradientTransform="matrix(.33259699 0 0 .33268016 138.07318 25.34336)" gradientUnits="userSpaceOnUse" r="79.418198"><stop offset=".35" stop-color="#fff"/><stop offset=".5717" stop-color="#f9fafb"/><stop offset=".705" stop-color="#edf1f3"/><stop offset=".8149" stop-color="#dce3e8"/><stop offset=".9116" stop-color="#c6d1d8"/><stop offset="1" stop-color="#abbac3"/></radialGradient><radialGradient id="h" cx="-323.81421" cy="-5.5988" gradientTransform="matrix(.33259699 0 0 .33268016 138.07318 25.34336)" gradientUnits="userSpaceOnUse" r="10.0429"><stop offset=".35" stop-color="#fff"/><stop offset=".5653" stop-color="#f6f8f9"/><stop offset=".7879" stop-color="#e6ebef"/><stop offset="1" stop-color="#d0dadf"/></radialGradient><g transform="matrix(1.7978315 0 0 1.7978315 -34.421362 -21.934946)"><path d="m19.146045 30.000832c0-9.832362 7.971017-17.800052 17.790072-17.800052 9.837352 0 17.808369 7.96769 17.808369 17.800052 0 9.830699-7.971017 17.798389-17.808369 17.798389-9.819055 0-17.790072-7.96769-17.790072-17.798389z" fill="#c60651" stroke-width=".16634"/><path d="m23.562374 38.189754c-5.219752-5.221415-4.620927-14.285286 1.327394-20.235271 5.959965-5.961628 15.022173-6.562116 20.243588-1.339037 5.219751 5.221415 4.620927 14.285286-1.339038 20.246914-5.949985 5.951648-15.010529 6.547146-20.231944 1.327394z" fill="url(#a)" stroke-width=".16634"/><path d="m38.206955 22.409071c-.05988-.06321-.370939-.40587-.370939-.40587l-1.606845.181311-.194618 15.795654s.360958.42583.417514.495693c.05656.06654.124755.116438.229549.116438h5.041768c.09481 0 .158023-.0499.158023-.146379 0-.09648 0-1.32074 0-1.445495 0-.124756-.03826-.207926-.104794-.289432-.06986-.08483-.404207-.500684-.404207-.500684l-3.068974.336007s0-13.804563 0-13.902704c.0033-.09814-.03493-.169667-.09648-.234539zm-9.160348 2.247254c0 1.360662 1.112815 2.466824 2.48013 2.466824 1.365652 0 2.478467-1.107825 2.478467-2.466824 0-1.367315-1.111151-2.48013-2.478467-2.48013-1.367315 0-2.48013 1.111151-2.48013 2.48013zm23.425673 4.951944c-.07818-.078179-.455772-.479059-.455772-.479059l-.291095.261154h-10.471108l-.247847 1.505378s.309393.312719.384246.392562c.07652.07984.189628.139726.306066.139726h8.854282c-.540605 6.909767-6.345874 12.300849-13.287245 12.300849-3.554688 0-6.90145-1.38894-9.426493-3.908992-2.510072-2.515062-3.895684-5.863488-3.895684-9.426492 0-3.564668 1.383949-6.911431 3.895684-9.426493 2.528369-2.516725 5.876795-3.902338 9.426493-3.902338 0 0 .849997.01.933167.0083.08317-.0033.108121-.04491.108121-.113111 0-.06986 0-1.408901 0-1.4771 0-.06986-.02329-.129745-.07984-.182974-.05822-.05323-.389236-.380919-.389236-.380919l-.5772.09481c-8.4717 0-15.364833 6.898123-15.364833 15.379804 0 4.105273 1.598528 7.966026 4.499499 10.875314 2.900971 2.907625 6.758398 4.506153 10.863671 4.506153 4.115253 0 7.980997-1.598528 10.880305-4.506153 2.900971-2.907625 4.499499-6.770041 4.499499-10.875314 0 0 0-.226223 0-.372602.0033-.172994-.03992-.289432-.164677-.412524z" fill="url(#b)" stroke-width=".16634"/><path d="m131.55 152.88h-27.92l-2.08 2.1h32.08z" fill="#576a76" transform="matrix(.16634008 0 0 .16634008 19.146045 12.20078)"/><path d="m41.028083 36.557958.345987-.349314c-.0017 0-3.19872 0-3.538054 0l-.34765.349314z" fill="#879aa4" stroke-width=".16634"/><path d="m101.55 58.93 2.08 2.08h6.64l2.09-2.08z" fill="#879aa4" transform="matrix(.16634008 0 0 .16634008 19.146045 12.20078)"/><path d="m37.488366 36.557958.34765-.349314c0-.372602 0-14.207106 0-14.207106l-.34765.34765z" fill="#152128" stroke-width=".16634"/><path d="m133.63 154.98v-10.64l-2.08 2.09v6.45z" fill="#152128" transform="matrix(.16634008 0 0 .16634008 19.146045 12.20078)"/><path d="m103.63 152.88v-91.87l-2.08-2.08h-.01v96.05h.01z" fill="#abbac3" transform="matrix(.16634008 0 0 .16634008 19.146045 12.20078)"/><path d="m28.928505 24.318655c0 1.277492 1.042952 2.315454 2.327098 2.315454 1.282482 0 2.323771-1.037962 2.323771-2.315454 0-1.282482-1.041289-2.325434-2.323771-2.325434-1.284146.0017-2.327098 1.044615-2.327098 2.325434zm4.303218 0c0 1.086201-.884929 1.967803-1.974457 1.967803-1.091191 0-1.979447-.883266-1.979447-1.967803 0-1.089528.888256-1.977784 1.979447-1.977784 1.089528 0 1.974457.88992 1.974457 1.977784z" fill="url(#d)" stroke-width=".16634"/><path d="m41.355772 30.544764-.34765.349314h9.203596l.365949-.349314z" fill="#445662" stroke-width=".16634"/><path d="m112.34 27 .02-1.15v-9.52l-2.09 2.07v6.49z" fill="#152128" transform="matrix(.16634008 0 0 .16634008 19.146045 12.20078)"/><path d="m133.52 103.86h62l2.09-2.1-4.67.02h-61.52z" fill="#879aa4" transform="matrix(.16634008 0 0 .16634008 19.146045 12.20078)"/><path d="m51.668857 29.995842c0 3.933943-1.531992 7.635009-4.314861 10.422869-2.779543 2.784533-6.482273 4.318189-10.42786 4.318189-3.935606 0-7.631683-1.533656-10.411225-4.318189-2.781207-2.78786-4.313199-6.488926-4.313199-10.422869 0-8.12904 6.605365-14.742722 14.724424-14.742722l.560566.0067.347651-.344324-.90988-.01c-8.312014 0-15.072075 6.770041-15.072075 15.090372 0 4.027093 1.568587 7.814657 4.413002 10.669052 2.846079 2.849406 6.631979 4.42132 10.659073 4.42132 4.038737 0 7.829627-1.570251 10.675706-4.42132 2.846079-2.851068 4.413002-6.641959 4.413002-10.669052v-.868295l-.34765.349314v.518981z" fill="url(#e)" stroke-width=".16634"/><path d="m36.931126 16.335994c-3.639521 0-7.069453 1.420545-9.659368 3.998816-2.574945 2.576608-3.995489 6.008204-3.995489 9.662695 0 3.651165 1.420544 7.082761 3.995489 9.659369 2.586588 2.584924 6.018184 4.008796 9.659368 4.008796 7.160941 0 13.150847-5.597344 13.633233-12.739987l.01164-.379256-.365948.349315h.0083c-.472406 6.966322-6.305952 12.422277-13.287246 12.422277-3.549697 0-6.891469-1.387277-9.413185-3.905665-2.508408-2.511736-3.892358-5.855171-3.892358-9.413185 0-3.559678 1.382286-6.904777 3.892358-9.416512 2.523379-2.515062 5.866815-3.899012 9.413185-3.899012l.8999.0083-.34266-.350977z" fill="url(#f)" stroke-width=".16634"/><path d="m131.42 101.78v10.6l2.1-2.1v-6.42z" fill="#c2ced5" transform="matrix(.16634008 0 0 .16634008 19.146045 12.20078)"/><g stroke-width=".16634"><path d="m36.227508 22.191165v15.599373h4.958598v-1.392267h-3.539717v-14.207106zm1.418881-7.086087c-.186301-.0067-.538942-.01-.718589-.01-8.200566 0-14.882447 6.683545-14.882447 14.900745 0 3.983845 1.550289 7.718179 4.359773 10.534317s6.553799 4.364764 10.522674 4.364764c3.985508 0 7.729823-1.548626 10.542634-4.364764 2.809484-2.816138 4.35811-6.550472 4.35811-10.534317v-.678668l-.587181.0017h-10.043614v1.382286h9.216904c0 .0316-.0033.177984-.0067.207925-.475733 7.019551-6.330904 12.595271-13.47521 12.595271-3.597936 0-6.98961-1.405574-9.547921-3.960558-2.54334-2.546666-3.94725-5.938341-3.94725-9.54792 0-3.612907 1.40391-7.004581 3.94725-9.549584 2.556647-2.546667 5.948321-3.953904 9.546257-3.953904.158023 0 .545596.0017.715263.0067z" fill="url(#g)"/><path d="m31.257266 26.446144c1.172698 0 2.13248-.949801 2.13248-2.125826 0-1.186005-.959782-2.135806-2.13248-2.135806-1.176024 0-2.13747.949801-2.13747 2.135806 0 1.176025.959782 2.125826 2.13747 2.125826z" fill="url(#h)"/><path d="m31.641512 22.568757c.48904 0 .938158.172994 1.300779.454109-.390899-.507338-.999704-.838354-1.685025-.838354-1.176024 0-2.13747.949801-2.13747 2.135806 0 .681995.32769 1.280819.830037 1.670055-.276124-.355968-.445791-.800096-.445791-1.285809 0-1.186005.961445-2.135807 2.13747-2.135807z" fill="#fff"/><path d="m37.646389 15.105078c-.186301-.0067-.538942-.01-.718589-.01-8.200566 0-14.882447 6.683545-14.882447 14.900745 0 3.983845 1.550289 7.718179 4.359773 10.534317.08982.08982.184638.174657.276125.264481-2.651461-2.784514-4.113591-6.410728-4.113591-10.276471-.001663-8.193913 5.803606-15.005539 15.078729-15.413072z" fill="#fff"/><path d="m37.648052 36.399935s1.019665.297749 3.538054.297749v-.297749z" fill="#fff"/><path d="m37.646389 22.631966v-.440801h-1.418881v15.599373s.439138-2.377.439138-15.158572z" fill="#fff"/><path d="m51.826881 29.318838-10.630795.0017v1.382286h.384246v-.99804c9.265142 0 10.246549-.385909 10.246549-.385909z" fill="#fff"/><path d="m50.414653 30.702787c0 .0316-.0033.177984-.0067.207925-.475733 7.019552-6.330904 12.595271-13.47521 12.595271-3.597936 0-6.98961-1.405574-9.547921-3.960557-1.663401-1.665064-2.837762-3.69275-3.45322-5.906736 1.596865 5.816912 6.916421 10.030306 13.239007 10.030306 6.785012 0 13.032745-5.314565 13.421981-12.964546h-.177984z" fill="#fff"/></g></g></svg>