<svg height="64" viewBox="0 0 16.933333 16.933333" width="64" xmlns="http://www.w3.org/2000/svg"><g stroke-width=".03318" transform="translate(0 -280.06667)"><path d="m1.1652598 292.83855c-.037618-.0597-.1786009-.33241-.31329515-.60611-.50754142-1.03132-.78766777-2.10966-.84073574-3.2364-.07196725-1.52802.20063402-2.86271.85710976-4.19653 1.08216193-2.19872 3.02900503-3.80067 5.39834263-4.442 3.2132717-.86976 6.6797367.25037 8.7771647 2.83619.923065 1.13801 1.578456 2.60129 1.797235 4.01267l.04741.33547-.719529.47663c-.546172.36179-1.08026-.009-1.51224.26504-.820623.52127-1.147223 1.57106-1.676717 2.3864-.365883.56341-.509256 1.31124-1.035214 1.72917-.648475.51528-1.537851.72268-2.365207.76166-.5903597.0278-1.2596354-.16307-1.7313141-.38241-.4979456-.23156-.6955492-.57654-1.025792-.88437-.3263406-.30419-.5592611-.72214-.9428999-.94985-.277308-.16459-.6256667-.26969-.9291495-.26945-.4848405.00038-.9052549.65874-1.2931658 1.05853-.2333988.24055-.4681621.65263-.6131453.79693-.3955404.39367-.7224606.61364-1.2228011.75051-.3671445.10043-.5809851-.32299-.6560615-.44206z" fill="#1f2a37"/><path d="m7.9867613 296.9884c-1.1326996-.057-2.3260793-.3792-3.3700445-.90976-1.2707725-.64583-2.3450146-1.59642-3.1764521-2.8108l-.2083696-.30434.2083696-.0388c.4429145-.0825.9235836-.31792 1.3698066-.67084.3113364-.24624.4915817-.46017.870102-1.03271.4145759-.62707.7136399-.93402.9876109-1.01364.3302755-.096.7936566-.004 1.2087873.24089.2819548.1661.6770819.56167.8823851.88339.2191648.34345.3205466.46065.5534406.63981.5233169.40258 1.2876204.63166 2.3169677.69446.3598695.022.8683051-.0455 1.2999041-.1725.356065-.10476.757738-.3433 1.050104-.62364.501598-.48097.748157-.89129 1.029076-1.71259.527963-1.54356 1.158598-2.29348 2.148857-2.55529.287355-.076 1.209967-.12524 1.549963-.0828l.181225.0226.0229.20233c.0352.31104.02635 1.36565-.01441 1.71809-.330315 2.85566-2.053168 5.33877-4.596497 6.62484-1.331857.67346-2.7894957.97801-4.3137187.90126z" fill="#40abfd"/></g></svg>